<?xml version="1.0" encoding="UTF-8" standalone="no" ?>
<!DOCTYPE svg PUBLIC "-//W3C//DTD SVG 1.1//EN" "http://www.w3.org/Graphics/SVG/1.1/DTD/svg11.dtd">
<svg xmlns="http://www.w3.org/2000/svg" xmlns:xlink="http://www.w3.org/1999/xlink" version="1.1" width="600" height="300" viewBox="0 0 600 300" xml:space="preserve">
<desc>Created with Fabric.js 5.2.4</desc>
<defs>
</defs>
<g transform="matrix(1 0 0 1 300 150)" id="1369b6dd-526c-4a64-a51f-a31192d36276"  >
<rect style="stroke: none; stroke-width: 1; stroke-dasharray: none; stroke-linecap: butt; stroke-dashoffset: 0; stroke-linejoin: miter; stroke-miterlimit: 4; fill: rgb(255,255,255); fill-rule: nonzero; opacity: 1; visibility: hidden;" vector-effect="non-scaling-stroke"  x="-300" y="-150" rx="0" ry="0" width="600" height="300" />
</g>
<g transform="matrix(Infinity NaN NaN Infinity 0 0)" id="d1b28329-337b-4611-b372-8ea67619bef9"  >
</g>
<g transform="matrix(0.65 0 0 0.65 300 150)"  >
<g style="" vector-effect="non-scaling-stroke"   >
		<g transform="matrix(1 0 0 1 0 0)"  >
<rect style="stroke: none; stroke-width: 1; stroke-dasharray: none; stroke-linecap: butt; stroke-dashoffset: 0; stroke-linejoin: miter; stroke-miterlimit: 4; fill: rgb(255,255,255); fill-rule: nonzero; opacity: 1; visibility: hidden;" vector-effect="non-scaling-stroke"  x="-540" y="-540" rx="0" ry="0" width="1080" height="1080" />
</g>
		<g transform="matrix(2.46 0 0 2.46 -171.11 61.15)"  >
<circle style="stroke: rgb(0,0,0); stroke-width: 0; stroke-dasharray: none; stroke-linecap: butt; stroke-dashoffset: 0; stroke-linejoin: miter; stroke-miterlimit: 4; fill: rgb(255,255,255); fill-rule: nonzero; opacity: 1;" vector-effect="non-scaling-stroke"  cx="0" cy="0" r="35" />
</g>
		<g transform="matrix(1 0 0 1 0 0)"  >
<rect style="stroke: none; stroke-width: 1; stroke-dasharray: none; stroke-linecap: butt; stroke-dashoffset: 0; stroke-linejoin: miter; stroke-miterlimit: 4; fill: rgb(255,255,255); fill-rule: nonzero; opacity: 1; visibility: hidden;" vector-effect="non-scaling-stroke"  x="-540" y="-540" rx="0" ry="0" width="1080" height="1080" />
</g>
		<g transform="matrix(2.46 0 0 2.46 -307.24 66.03)"  >
<circle style="stroke: rgb(0,0,0); stroke-width: 0; stroke-dasharray: none; stroke-linecap: butt; stroke-dashoffset: 0; stroke-linejoin: miter; stroke-miterlimit: 4; fill: rgb(255,255,255); fill-rule: nonzero; opacity: 1;" vector-effect="non-scaling-stroke"  cx="0" cy="0" r="35" />
</g>
		<g transform="matrix(0.13 0 0 -0.13 -239.39 38.7)"  >
<path style="stroke: none; stroke-width: 1; stroke-dasharray: none; stroke-linecap: butt; stroke-dashoffset: 0; stroke-linejoin: miter; stroke-miterlimit: 4; fill: rgb(1,84,153); fill-rule: nonzero; opacity: 1;" vector-effect="non-scaling-stroke"  transform=" translate(-1474.43, -1101.37)" d="M 1135 2097 C 1043 2066 986 2032 908 1961 C 840 1899 773 1805 722 1705 C 692 1644 692 1644 608 1612 C 338 1510 144 1273 101 993 C 85 891 87 819 109 712 C 170 421 387 192 686 107 C 764 85 770 85 1475 85 C 2180 85 2186 85 2264 108 C 2669 222 2918 609 2846 1010 C 2789 1321 2557 1566 2247 1640 C 2184 1655 2129 1660 2010 1660 L 1855 1660 L 1820 1727 C 1726 1905 1593 2033 1441 2091 C 1354 2124 1224 2127 1135 2097 z M 1114 1390 C 1207 1366 1276 1330 1342 1271 C 1414 1206 1416 1198 1371 1162 L 1333 1131 L 1281 1181 C 1181 1277 1037 1322 899 1300 C 598 1254 438 952 568 676 C 639 526 785 440 968 440 C 1099 440 1192 476 1287 563 L 1329 602 L 1369 573 C 1391 558 1410 542 1410 539 C 1410 523 1299 432 1243 403 C 1163 360 1075 340 963 340 C 796 340 686 379 582 475 C 393 649 354 956 494 1165 C 627 1364 870 1453 1114 1390 z M 1811 1005 C 1898 802 1973 627 1978 616 C 1984 602 2005 641 2068 786 C 2112 890 2190 1067 2239 1180 L 2329 1385 L 2382 1382 C 2411 1380 2436 1378 2437 1376 C 2439 1375 2389 1257 2326 1114 C 2264 972 2164 744 2105 608 C 2046 471 1992 360 1985 360 C 1974 360 1540 1352 1540 1377 C 1540 1381 1565 1383 1596 1380 L 1653 1375 L 1811 1005 z" stroke-linecap="round" />
</g>
		<g transform="matrix(0.13 0 0 -0.13 -262.53 -143.05)"  >
<path style="stroke: none; stroke-width: 1; stroke-dasharray: none; stroke-linecap: butt; stroke-dashoffset: 0; stroke-linejoin: miter; stroke-miterlimit: 4; fill: rgb(1,84,153); fill-rule: nonzero; opacity: 1;" vector-effect="non-scaling-stroke"  transform=" translate(-1275.44, -2483.46)" d="M 1186 2734 C 1118 2712 1046 2639 1026 2569 C 1006 2503 1006 2456 1025 2399 C 1089 2211 1334 2159 1469 2305 C 1522 2362 1540 2409 1540 2484 C 1540 2587 1483 2677 1388 2726 C 1343 2749 1246 2753 1186 2734 z" stroke-linecap="round" />
</g>
		<g transform="matrix(0.13 0 0 -0.13 -133.55 -115.97)"  >
<path style="stroke: rgb(255,255,255); stroke-width: 1; stroke-dasharray: none; stroke-linecap: butt; stroke-dashoffset: 0; stroke-linejoin: miter; stroke-miterlimit: 4; fill: rgb(0,0,0); fill-rule: nonzero; opacity: 1;" vector-effect="non-scaling-stroke"  transform=" translate(-2242.5, -2275.02)" d="M 2103 2739 C 2067 2728 2030 2687 2030 2656 C 2030 2609 2019 2595 1973 2580 C 1945 2571 1918 2554 1906 2537 C 1886 2510 1885 2496 1885 2202 C 1885 1975 1888 1887 1898 1865 C 1921 1809 1936 1805 2162 1802 C 2338 1799 2373 1801 2400 1815 C 2435 1833 2460 1881 2460 1930 C 2460 1958 2463 1960 2494 1960 C 2539 1960 2585 2004 2593 2057 C 2597 2078 2600 2191 2600 2308 C 2600 2504 2598 2524 2579 2561 C 2552 2615 2486 2686 2431 2722 C 2388 2749 2382 2750 2261 2749 C 2191 2749 2121 2744 2103 2739 z M 2370 2610 C 2373 2569 2378 2530 2383 2523 C 2387 2517 2424 2509 2465 2505 L 2540 2498 L 2540 2284 C 2540 2167 2536 2060 2530 2046 C 2523 2026 2514 2020 2490 2020 L 2460 2020 L 2460 2199 L 2460 2378 L 2419 2439 C 2380 2497 2321 2554 2273 2579 C 2261 2585 2212 2590 2165 2590 L 2079 2590 L 2082 2627 C 2086 2682 2111 2691 2250 2688 L 2365 2685 L 2370 2610 z M 2230 2462 C 2230 2364 2242 2350 2331 2350 L 2400 2350 L 2400 2123 C 2399 1949 2396 1891 2386 1878 C 2374 1862 2352 1860 2172 1860 C 1976 1860 1971 1861 1956 1882 C 1942 1901 1940 1949 1940 2202 C 1940 2561 1924 2530 2107 2530 L 2230 2530 L 2230 2462 z" stroke-linecap="round" />
</g>
		<g transform="matrix(0.13 0 0 -0.13 -146.16 -109.14)"  >
<path style="stroke: none; stroke-width: 1; stroke-dasharray: none; stroke-linecap: butt; stroke-dashoffset: 0; stroke-linejoin: miter; stroke-miterlimit: 4; fill: rgb(0,0,0); fill-rule: nonzero; opacity: 1;" vector-effect="non-scaling-stroke"  transform=" translate(-2142.84, -2234.96)" d="M 1993 2245 C 1982 2214 2006 2209 2151 2212 C 2287 2215 2295 2216 2295 2235 C 2295 2254 2287 2255 2147 2258 C 2020 2260 1999 2258 1993 2245 z" stroke-linecap="round" />
</g>
		<g transform="matrix(0.13 0 0 -0.13 -145.96 -92.91)"  >
<path style="stroke: none; stroke-width: 1; stroke-dasharray: none; stroke-linecap: butt; stroke-dashoffset: 0; stroke-linejoin: miter; stroke-miterlimit: 4; fill: rgb(0,0,0); fill-rule: nonzero; opacity: 1;" vector-effect="non-scaling-stroke"  transform=" translate(-2144.37, -2113.3)" d="M 2018 2133 C 1999 2130 1990 2123 1990 2109 C 1990 2091 1998 2090 2140 2090 C 2267 2090 2292 2092 2297 2105 C 2300 2114 2299 2124 2295 2128 C 2287 2136 2059 2140 2018 2133 z" stroke-linecap="round" />
</g>
		<g transform="matrix(0.13 0 0 -0.13 -145.95 -75.81)"  >
<path style="stroke: none; stroke-width: 1; stroke-dasharray: none; stroke-linecap: butt; stroke-dashoffset: 0; stroke-linejoin: miter; stroke-miterlimit: 4; fill: rgb(0,0,0); fill-rule: nonzero; opacity: 1;" vector-effect="non-scaling-stroke"  transform=" translate(-2144.45, -1985)" d="M 1990 1991 C 1990 1965 2016 1960 2155 1960 C 2280 1960 2307 1967 2297 1994 C 2292 2008 2269 2010 2140 2010 C 2000 2010 1990 2009 1990 1991 z" stroke-linecap="round" />
</g>
		<g transform="matrix(0.13 0 0 -0.13 8.32 70.71)"  >
<path style="stroke: none; stroke-width: 1; stroke-dasharray: none; stroke-linecap: butt; stroke-dashoffset: 0; stroke-linejoin: miter; stroke-miterlimit: 4; fill: rgb(0,0,0); fill-rule: nonzero; opacity: 1;" vector-effect="non-scaling-stroke"  transform=" translate(-3305, -873.43)" d="M 3241 1399 C 3187 1382 3132 1343 3103 1299 C 3081 1266 3075 1242 3072 1190 C 3065 1067 3095 1021 3290 865 C 3453 734 3502 662 3486 576 C 3467 475 3330 410 3227 453 C 3196 466 3148 514 3105 574 L 3085 602 L 3047 580 C 3027 568 3010 554 3010 549 C 3010 528 3061 461 3109 418 C 3175 359 3239 336 3328 342 C 3410 347 3461 370 3522 431 C 3571 480 3600 549 3600 616 C 3600 715 3521 824 3362 941 C 3237 1034 3212 1057 3189 1102 C 3138 1202 3199 1300 3312 1300 C 3373 1300 3405 1284 3459 1225 L 3501 1179 L 3541 1211 L 3580 1242 L 3549 1281 C 3515 1324 3473 1359 3423 1384 C 3382 1404 3285 1413 3241 1399 z" stroke-linecap="round" />
</g>
		<g transform="matrix(0.13 0 0 -0.13 115.4 71.33)"  >
<path style="stroke: none; stroke-width: 1; stroke-dasharray: none; stroke-linecap: butt; stroke-dashoffset: 0; stroke-linejoin: miter; stroke-miterlimit: 4; fill: rgb(0,0,0); fill-rule: nonzero; opacity: 1;" vector-effect="non-scaling-stroke"  transform=" translate(-4110, -869.5)" d="M 3740 1374 C 3740 1371 3748 1356 3759 1342 C 3769 1327 3840 1214 3916 1090 L 4055 865 L 4060 615 L 4065 365 L 4113 362 L 4160 359 L 4160 601 L 4160 843 L 4320 1106 C 4408 1250 4480 1371 4480 1374 C 4480 1377 4456 1380 4427 1380 L 4373 1380 L 4245 1170 C 4175 1055 4116 960 4114 960 C 4113 960 4068 1031 4014 1118 C 3960 1204 3901 1299 3883 1328 L 3850 1380 L 3795 1380 C 3765 1380 3740 1377 3740 1374 z" stroke-linecap="round" />
</g>
		<g transform="matrix(0.13 0 0 -0.13 241.97 71.25)"  >
<path style="stroke: none; stroke-width: 1; stroke-dasharray: none; stroke-linecap: butt; stroke-dashoffset: 0; stroke-linejoin: miter; stroke-miterlimit: 4; fill: rgb(0,0,0); fill-rule: nonzero; opacity: 1;" vector-effect="non-scaling-stroke"  transform=" translate(-5060, -870)" d="M 4660 870 L 4660 360 L 4710 360 L 4760 360 L 4762 746 L 4765 1132 L 5099 749 C 5283 538 5438 365 5444 365 C 5452 365 5456 515 5458 873 L 5460 1380 L 5410 1380 L 5360 1380 L 5360 994 C 5360 782 5356 610 5351 612 C 5347 614 5294 672 5234 741 C 4810 1230 4678 1380 4669 1380 C 4664 1380 4660 1185 4660 870 z" stroke-linecap="round" />
</g>
		<g transform="matrix(0.13 0 0 -0.13 372.83 71.22)"  >
<path style="stroke: none; stroke-width: 1; stroke-dasharray: none; stroke-linecap: butt; stroke-dashoffset: 0; stroke-linejoin: miter; stroke-miterlimit: 4; fill: rgb(0,0,0); fill-rule: nonzero; opacity: 1;" vector-effect="non-scaling-stroke"  transform=" translate(-6040, -870.12)" d="M 5702 873 L 5705 365 L 5755 365 L 5805 365 L 5810 598 L 5815 832 L 6030 605 C 6148 480 6247 374 6248 369 C 6252 358 6380 357 6380 368 C 6380 372 6318 441 6242 521 C 6167 601 6050 725 5983 797 L 5861 926 L 6078 1127 C 6198 1238 6306 1340 6319 1354 L 6343 1380 L 6279 1380 L 6214 1380 L 6015 1193 L 5815 1007 L 5812 1193 L 5810 1380 L 5755 1380 L 5700 1380 L 5702 873 z" stroke-linecap="round" />
</g>
</g>
</g>
</svg>
